<?xml version="1.0" encoding="UTF-8"?>
<svg id="Capa_1" xmlns="http://www.w3.org/2000/svg" version="1.1" viewBox="0 0 500 500">
  <!-- Generator: Adobe Illustrator 29.0.1, SVG Export Plug-In . SVG Version: 2.1.0 Build 192)  -->
  <defs>
    <style>
      .st0 {
        fill: #fff;
      }
    </style>
  </defs>
  <path class="st0" d="M67.5,211.8h32.5l6.5.2-.2,2.8-.5,1.8-.2.2-6.8.2h-5l-.5,2.8-4.5,21-1.2,6.5-2.2,9.8-2.5,12.5-2.2,10.5-2.5,12-1.5,7-1,5.5,11.5-.2,6.5-.5,5.2-1,4.8-1.8,4-2.5,2.8-2.2,1-.5.2-.8,1.2-1.2,2.5-2.8,3.2-4.5,3.8-6.2,1.8-3.2.5-.2h4.2l.5.2-.2,1.8-1.8,7.5-3,13-2,8.8-.8,1.5-.2.2H39.8l-.2-.2.2-2.5.8-2.2.2-.2h11l.5-3,3-14.8,2.8-13.2,3.8-17.8,3.2-15.8,3.5-17.2,1.2-5.5-12.8-.2-.2-.2.2-3,.5-1.8,10-.2Z"/>
  <path class="st0" d="M359.8,267.5l54,.2.8,5,1,2.8,1.5,2.8,2.2,2.2,2.5,1.8,3,1.2,3.5.5,3.5.2-1,1.8-3.5,5.5-1.2,1.8h5.2l20.5.5,3,.5,3.2,3.2,1.8,2.8.8,1.8.2,1.2v2l-.8.5-15,.2h-55.2l-37.8-.2-.5-.8,1-4,2-4,1.8-1.8,2.5-1.5h20.8l35.2.2-1-13.2-.2-4.5-.2-1.5-3.8-.2-45-.8-5-.2-.5-1.2-.2-4.2,1-.5Z"/>
  <path class="st0" d="M124,225.8l3.8.2,2.5,1,1.8,1.2,2.2,3,.8-2,.8-2.2h13.5l.8.2-1,4-4.5,17.8-1.8,6.5-.8,4.8.2,2.5.8.5,1.8-.2,2-1.8,2.2-3.5,1.5-3.5,1.2-.2,2.2,1.2-.2,1.5-1.5,2.5-2,3.5-2.8,3.2-2.5,2-3,1.5-2.2.5h-4.2l-2.5-1-2-1.5-1.8-2-.8-1.5-1,.2-2.8,2.2-2.8,1.8-3,1.2-2.5.5h-4.5l-3-.8-3-1.5-3-2.8-2-2.8-1.5-4-.5-3v-2.5l.5-3.8,1.2-4,1.8-4.2,2-3,2.2-2.8,3.2-3.2,3.8-2.8,3.5-1.8,3.2-1,3.5-.5ZM125,229.5l-1.8.8-1.8,1.5-1.5,3-3,9.2-3.2,13-.8,3.8v3.5l.8,1.2,2,1.2h2.5l3-1.2,2.5-2,1.8-2,2-3.5,1.8-5.2,2.2-8.8.8-4.2.2-4.5-.8-2.2-1.8-2-2-1.2-1-.2h-2Z"/>
  <path class="st0" d="M424,190l1.8.2,3,2.8,2,1.8,4.5,4.5,2,1.8,3,2.8v.8l-1.8-.2-2.2-1.5-.5-.5-1.2.2-3.8,3.8h-.5v.5l-2,1.8-3,3-2,1.8-3.8,3.8-2,1.8-3.2,3.2-2,1.8-1.2,1-.2.5,4,.8,4,1.5,3,1.8,3.2,3,2.2,2.8,2.2,3.2,2.5,4.8,2,6,1.2,5.2v.8l-2.2-.2-4.8-.5-5.2.8-.5-1.8-1.2-4-1.8-4.2-2.5-4.8-2.5-4.2-3.5-5.5-2.5-3.5-.8-1-1.2.2-2.8,2.2-3.5,3.2-2.8,2.2-3.2,3-2.8,2.2-3.2,3-2.5,2,.5,1,1.2,2.8v1l-1.2-.2-3.2-3.2-1.8-2-1.8-1.8-1.8-2-4.2-4-1.2-1.2v-.5l1.8-.2,2.5,1,1.5,1,1.2-.2,2.5-2.2,2.8-2.2,3.5-3,7.5-6.5,3.2-2.8,14-12,3.8-3.2,3.2-2.8,2.5-2.2,3.5-2.8-1.2-2-1-3,.5-.8Z"/>
  <path class="st0" d="M286,225.8h5.8l3.8.8,3.2,1.2,2.5,2.2,1.2,2,.8,2.2.2,2.8-.5,3-1.2,3-1.8,2.2-2.5,1.8-3.8,1.8-4,1-7.8,1h-8l-.5,3.2-.8,4v4l.8,2,2,1.5,1,.2h6.5l3.8-1,4-2,2.8-1.8,2.5-2.2,3-3,.5-.8h1.5l1.5,1,.2,1-3,3.5-2.5,2.5-3.5,2.5-4,2-3.5,1.2-4.5,1-2.8.2h-6l-4.2-.8-4-1.8-2.2-1.8-1.8-2-2-3.5-1-2.5-.2-1.5v-5.8l1-3.8,2-4.5,2.5-4,2.5-2.8,1.8-2,4-3,3.5-2,4.2-1.5,4.5-1,2.5-.2ZM285.5,228.8l-2.5,1-2.5,2.2-2.2,4.2-2,5.5-1.2,5.2.2.8h3.8l3.5-.5,3.2-1,2.2-1.2,1.5-1.2,1.8-2.5,1.2-3,.5-3.5-.5-2.8-1.5-2-1.8-1-.8-.2h-3Z"/>
  <path class="st0" d="M180,224.8h8.8l4.2,1,3,1.2,2,1.5,1.5,2,.5,2.8-.5,2-1.2,1.8-2.5,1.2-2,.5-2.5-.5-2-1-1.2-1.5-.5-1.5v-3.2l.2-2.2-1.2-.8-1-.2h-4.8l-2.8.5-2,1.2-.8,2.2.5,2,1.5,1.8,4.2,2.5,4,2,4.2,2.2,2.8,2,2.8,2.8,1.5,2.5,1,3.2v4l-.8,2.5-1.8,3-2.5,2.2-3.5,2-4.5,1.5-4,.8h-9.5l-4-.8-3.2-1.2-2.5-1.5-2-2-1.5-3v-3l.8-1.8,1.2-1.2,1-.8,2.5-.8h2l2.5.8,1.8,1.5.8,1.5,1,5.8,1,2,1.2,1,1.8.5h4l3-.8,2.5-1.2,1-1.2.2-.8v-2l-.8-2-1.8-2-4-2.5-4-2-5.2-2.8-2.8-2.2-1.8-2-1.5-3-.5-2v-2.5l.8-3,1-2,2.8-3,3.5-2,3.8-1.2,4.2-.8Z"/>
  <path class="st0" d="M228.5,224.8h8.8l4.5,1,4,2,2,2.2.8,2.2v1.8l-1.2,2.5-2.2,1.5-1.2.5h-3l-2.5-1-1.5-1.8-.5-1.2v-6.2l-2-.5h-5.2l-2.2.5-2,1.2-1,2,.2,1.8,1,1.5,2.5,1.8,4.5,2.5,4,2,3,1.8,3.2,2.5,2,2.2,1.8,3.8.5,2.5v2.2l-.8,2.8-1.2,2.5-2.2,2.5-3.5,2.2-3,1.2-4.8,1.2-1.5.2h-9.8l-4.5-1-3.2-1.2-2.8-2-1.5-1.8-1-2-.2-1.2v-2l1-2.2,1.8-1.5,1.8-.8,1.2-.2h2l2.8,1,1.8,2,.5,1.5.8,5,.8,1.5,1.8,1.5,1.5.5h4.2l3-.8,2.5-1.5,1-1.2.2-1.5-.5-2.2-1.5-2-2-1.8-4.5-2.5-5.8-2.8-3.2-2.2-1.5-1.2-2.2-3.2-1-2.5-.2-3.2.8-3.2,1.5-2.5,2-2.2,3.5-2,3.2-1.2,5-1Z"/>
  <path class="st0" d="M336,223.5h2.5l.2,1.2-2,7.2-.2,1.2,1.8-1.5,2.2-2.8,2.5-2.2,3.2-2,2.5-1,3.2-.2,2.5.5,2.2,1.2,1.8,2,.8,2.5v2.2l-1,2.5-2.2,2-1.8.5h-2.8l-2-1-2.2-2.2-1.8-2-.8-.5-1.5.2-2,1.5-2.2,2.5-2.2,3.8-2.2,5-1.8,5-3,11.5-1.5,5.2-.8.8h-13.5l-.2-.8,4.5-17.5,3.2-13,2-7.8h-7.5v-1.8l.5-1.5.5-.2,14.5-.5,4.5-.2Z"/>
  <path class="st0" d="M427.8,257h3.2l3.2,1,2.8,1.8,2.2,2.5,1.5,3.2.2,1v5l-1,3-1.8,2.8-2.2,2-2.5,1.2-2,.5h-5l-2.5-.8-2.5-1.5-1.8-1.8-2-3.2-.8-2-.2-3.5,1-4,1.2-2.2,2.2-2.5,2-1.2,3-1,1.5-.2ZM427,260.2l-3,1.2-2.5,2.2-1.2,2.2-.2,1v4l1,2.8,2.2,2.5,2.5,1.5,2.2.5,3.2-.2,2.5-1,1.8-1.2,1.5-2,.8-2.5v-4.5l-.8-2.2-2-2.2-2.5-1.5-1.8-.5h-3.8Z"/>
  <path class="st0" d="M370.8,261.2h44.2l1,.2-.2,1-1.5,2.2h-49.8l1.2-1.2,4-2,1-.2Z"/>
  <path class="st0" d="M164.2,297h5.5l2,.8.8,1.2v2l-1.8,2,.8,1.5,1.2,1.8,1-.5,2.8-7.2,1-1.2h2.2l.8,1.2,2.8,7.5.2,1.2-1.2.2-1.2-.8-.5-1.2-1.2-.2h-2.5l-.5,1-1.2,1.2h-3.8l-1.2-.8-2.5-3.2-1.2-.5v4l-.2.2h-2.2v-9.8l.5-.5ZM166.5,299l-.5.5v1.5l1.2.5,2.5-.5.2-.2v-1.2l-.8-.5h-2.8ZM178,301l-.5.5v1.5h2.2l-.8-1.5-1-.5Z"/>
  <path class="st0" d="M427.2,263.2h3l2.2,1,1.2,1.2,1,2v3.5l-1,2-2,1.8-1.5.5h-2.5l-2-.8-1.8-1.8-1-2.2v-2.5l1-2.5,2-1.8,1.2-.5Z"/>
  <path class="st0" d="M142.5,297h5.8l1.8.8.5,1.2v3.5l.2.5v2.8l-1,1.2-1.5.5h-5.5l-.5-1.8v-8.5l.2-.2ZM144.8,299l-.2.2v1.8l1.2.2,2.5-.2v-1.5l-.5-.5h-3ZM145.2,302.8l-1,.5v1.5l.5.8.8.2h1.8l1.2-.8.2-.2v-1.5l-.2-.2-3.2-.2Z"/>
  <path class="st0" d="M297.8,296.8l3,.2,1.2.8.8,1v1.2l-1.2.2-2.2-1h-2l-1,.8-.2.8v2.5l.8,1.5,1.5.8,1.8-.2.8-.8.2-.8h-2l-.5-1,.8-1h3.5l.5,1v2l-.8,1.5-1.2,1-1.2.5h-2.8l-2-.8-1.5-1.8-.5-1.5v-3l.8-2,1.8-1.5,2-.5Z"/>
  <path class="st0" d="M286,296.8h2l2.2.8,1.2,1.5.5,1.8-.2,4-1.2,2-2,1h-3l-1.8-.8-1.2-1.5-.8-2.2v-2l.8-2.2,1-1.2,1.2-.8,1.2-.2ZM286.2,298.8l-1.2.8-.5.5-.2,2.5.8,2.2,1.2.8h1.8l1.2-1,.5-1.8-.2-2.5-1.2-1.2-.5-.2h-1.5Z"/>
  <path class="st0" d="M221.5,296.8h1.8l2.2.8,1.2,1.2.8,2v3l-.8,1.8-1,1.2-2.5,1h-2.2l-2-.8-1.2-1.5-.5-1.5v-2.8l.8-2.5,1.8-1.5,1.8-.5ZM221.5,298.8l-1.5,1-.5,1v2.2l.8,1.8,1,.8h2.2l1.2-1.2.2-1v-2l-.8-1.8-1.2-.8h-1.5Z"/>
  <path class="st0" d="M156.5,296.8l2.8.2,1.5.8,1.2,1.5.5,2.2-.2,2.8-1,2-1.2,1-1.5.5h-2.5l-1.8-.8-1.5-1.8-.5-1.2v-3l.8-2,1-1.2,1.2-.8,1.2-.2ZM156.5,298.8l-1,.5-.8,1.2v3l.5,1.2,1.2.8h1.8l1.5-1.2.2-.8v-2.5l-.8-1.5-1.2-.8h-1.5Z"/>
  <path class="st0" d="M252.5,297h6l1.2.5.8,1v2.2l-.8,1.5-.5.5.2,1,1.5,2.2.2,1.5h-1.8l-1.2-.8-2-3-1.8-.5v3.8l-.5.5h-1.5l-.2-.2v-10l.2-.2ZM254.5,299l-.2,2,.2.2h3.2l.5-.2v-1.8l-.8-.2h-3Z"/>
  <path class="st0" d="M195.8,296.8h2l2.2.8,1.2,1.5.5,2.5-.2,3-1,1.8-1.5,1.2-1,.2h-2.5l-1.8-.8-1.2-1.2-.8-1.2-.2-1.2v-2l1-2.5,1.5-1.5,1.8-.5ZM196,298.8l-1.2.8-.5.8v3.2l.8,1.5,1.5.8,2.2-.8.8-1.5v-2.2l-.8-1.8-1.5-.8h-1.2Z"/>
  <path class="st0" d="M203.5,297h5.5l2.2.8.5.8.2,2.2-1.8,2,.2,1,2,3v.5h-2.5l-1.2-1.2-1.8-2.5-1.5-.2v3.2l-.2.8-1.2.2-.8-.2-.2-.8.2-9,.2-.5ZM205.5,299l-.2.2v1.8l.2.2h3.2l.8-.5v-1.2l-1-.5h-3Z"/>
  <path class="st0" d="M322.8,296.8h1.8l2.5.8,1.5,1.8.5,1.5v2.5l-.8,2.2-2,1.8-1.2.5h-2.5l-1.8-.8-1.8-2-.2-.8v-3.2l.8-2.2,1.5-1.5,1.8-.5ZM322.8,298.8l-1.2,1-.5,1.8.2,2.2.8,1.2,1.8.8,1.5-.5,1-.8.2-.8v-3l-.5-1.2-1.2-.8h-2Z"/>
  <path class="st0" d="M266.2,296.8l2.8.2,1.8.8,1.2,2.5v3.8l-1.2,2.5-1.5,1-1,.2h-2.5l-2-.8-1.5-2.2-.2-1v-2.5l.8-2.5,1.8-1.5,1.8-.5ZM266.2,298.8l-1.2.8-.8,1.8.2,2.2.8,1.5,1.5.8,1.5-.2,1.2-1,.2-1v-2.8l-.8-1.2-1.2-.8h-1.5Z"/>
  <path class="st0" d="M234.8,297h3.5l1.8.8.5,2.2-2.5-.2-1.5-.5h-1.2v.8l3,1.2,2,1,.5.5v2.2l-.8,1.5-1.5,1-.8.2h-2l-1.8-.5-1.5-1.8-.2-1.8h1.5l2.2,1.5,1.2.2,1-.5.5-1.2-2-.2-3-1.2-1-1.2-.2-1.8,1-1.5,1.2-.8Z"/>
  <path class="st0" d="M242.8,297h7.2l.2.2v1.5l-.2.2-5.5.2v1.8h5.2l.2.2v1.2l-.2.2-5,.2v2.5h5.5l.2,1.5-.5.5h-7l-.5-.5v-9.8l.2-.2Z"/>
  <path class="st0" d="M135,297.2h2.2l1,1.5,2.5,7,.8,1.5-1.2.2-1.5-.5-.8-1.2v-.5h-2.5l-1.5.5-.8,1.5h-2l.5-2.2,1.8-5,1.2-2.5.2-.2ZM135.8,300.8l-.8,1.5.2.8h1.5l.2-1.2-.8-1h-.5Z"/>
  <path class="st0" d="M312.8,296.8l2.5.2,1.8,1,.5.8v1.5l-2.2-.2-1.8-1-1.5.2-.8,1-.2.8v2l.8,1.8.5.5h1.5l1.5-1,1-.8,1.2.2.2.8-.8,1.5-1.8,1.5-1,.2h-2.2l-1.5-.8-1.8-2-.2-.8v-3.5l1-2.2,1.2-1.2,2-.5Z"/>
  <path class="st0" d="M275.5,297l.8.2v8h4.2l.8.5.2,1.2-.2.5h-7l-.8-1v-8.8l.2-.5,1.8-.2Z"/>
  <path class="st0" d="M182.8,297h8.5l.2,1-.5.8-2.5.5-.2,7.8-.5.5h-1.5l-.5-.5.2-7.8-2.2-.2-1.2-.8.2-1.2Z"/>
  <path class="st0" d="M304.5,297.2h2.8l-.2,3v6.8l-.5.5h-1.5l-.5-.8v-9.5Z"/>
  <path class="st0" d="M214,297h1.8l.5.5-.5,3.2v2.8l.2,3.2-.2.5-1.8.2-.5-.2v-10l.5-.2Z"/>
</svg>